<svg id="Layer_1" data-name="Layer 1" xmlns="http://www.w3.org/2000/svg" xmlns:xlink="http://www.w3.org/1999/xlink" viewBox="0 0 200 200"><defs><style>.cls-1,.cls-49{fill:none;}.cls-2{font-size:8.06px;font-family:TrajanPro-Bold, Trajan Pro;font-weight:700;}.cls-13,.cls-14,.cls-2{fill:#fff;}.cls-3{letter-spacing:0.54em;}.cls-4{letter-spacing:0.54em;}.cls-5{letter-spacing:0.51em;}.cls-6{letter-spacing:0.5em;}.cls-7{letter-spacing:0.52em;}.cls-8{letter-spacing:0.54em;}.cls-9{letter-spacing:0.52em;}.cls-10{fill:#057f40;}.cls-11{clip-path:url(#clip-path);}.cls-12{fill:url(#linear-gradient);}.cls-14{font-size:7.16px;font-family:DINPro-Medium, DINPro;font-weight:500;}.cls-15{letter-spacing:0.24em;}.cls-16{letter-spacing:0.22em;}.cls-17{letter-spacing:0.22em;}.cls-18{letter-spacing:0.24em;}.cls-19{letter-spacing:0.24em;}.cls-20{letter-spacing:0.24em;}.cls-21{letter-spacing:0.24em;}.cls-22{letter-spacing:0.24em;}.cls-23{letter-spacing:0.24em;}.cls-24{letter-spacing:0.24em;}.cls-25{clip-path:url(#clip-path-2);}.cls-26{fill:url(#linear-gradient-2);}.cls-27{clip-path:url(#clip-path-3);}.cls-28{fill:url(#linear-gradient-3);}.cls-29{clip-path:url(#clip-path-4);}.cls-30{fill:url(#linear-gradient-4);}.cls-31{clip-path:url(#clip-path-5);}.cls-32{fill:url(#linear-gradient-5);}.cls-33{fill:url(#linear-gradient-6);}.cls-34{clip-path:url(#clip-path-7);}.cls-35{fill:url(#linear-gradient-7);}.cls-36{fill:url(#linear-gradient-8);}.cls-37{clip-path:url(#clip-path-9);}.cls-38{fill:url(#linear-gradient-9);}.cls-39{clip-path:url(#clip-path-10);}.cls-40{fill:url(#linear-gradient-10);}.cls-41{fill:url(#linear-gradient-11);}.cls-42{clip-path:url(#clip-path-12);}.cls-43{fill:url(#linear-gradient-12);}.cls-44{fill:url(#linear-gradient-13);}.cls-45{clip-path:url(#clip-path-14);}.cls-46{fill:url(#linear-gradient-14);}.cls-47{clip-path:url(#clip-path-15);}.cls-48{fill:url(#linear-gradient-15);}.cls-49{stroke:#fff;stroke-miterlimit:10;stroke-width:0.39px;}</style><clipPath id="clip-path"><path class="cls-1" d="M140.83,91.92s8.93.21,9.61-6.69a5.93,5.93,0,0,0-1.69-.22c-2.11,0-5.72,1-7.92,6.91m10-6.84c8,12.81,25.24,3.72,25.24,3.72-6-5.68-11.32-7.37-15.48-7.37a14.63,14.63,0,0,0-9.76,3.65m-.42-.41C159.91,77.84,152,65,152,65c-10.06,12.19-1.6,19.64-1.6,19.64"/></clipPath><linearGradient id="linear-gradient" x1="-4491.19" y1="2263.88" x2="-4490.73" y2="2263.88" gradientTransform="matrix(0, -59.82, -59.82, 0, 135593.44, -268587.69)" gradientUnits="userSpaceOnUse"><stop offset="0" stop-color="#7c2981"/><stop offset="0.05" stop-color="#7c2981"/><stop offset="0.11" stop-color="#604c9b"/><stop offset="0.22" stop-color="#2893d0"/><stop offset="0.25" stop-color="#349aad"/><stop offset="0.3" stop-color="#48a676"/><stop offset="0.34" stop-color="#54ad54"/><stop offset="0.36" stop-color="#59b047"/><stop offset="0.39" stop-color="#8cc23e"/><stop offset="0.43" stop-color="#bdd436"/><stop offset="0.47" stop-color="#e1e02f"/><stop offset="0.5" stop-color="#f7e82b"/><stop offset="0.52" stop-color="#ffeb2a"/><stop offset="0.52" stop-color="#ffea29"/><stop offset="0.66" stop-color="#fcc80b"/><stop offset="0.78" stop-color="#ef8e34"/><stop offset="0.86" stop-color="#ea6e30"/><stop offset="0.89" stop-color="#e8612f"/><stop offset="0.91" stop-color="#e7572f"/><stop offset="0.96" stop-color="#e33a2e"/><stop offset="1" stop-color="#df1f2d"/></linearGradient><clipPath id="clip-path-2"><path class="cls-1" d="M17.55,84.43c-.34,1.74,1.09,3.49,3.21,3.91s4.12-.64,4.47-2.38-1.1-3.48-3.21-3.9a5,5,0,0,0-.93-.09,3.42,3.42,0,0,0-3.54,2.46"/></clipPath><linearGradient id="linear-gradient-2" x1="-4257.14" y1="2433.05" x2="-4256.68" y2="2433.05" gradientTransform="matrix(16.97, -0.05, 0.05, -17.23, 72132.57, 41773.19)" gradientUnits="userSpaceOnUse"><stop offset="0" stop-color="#102213"/><stop offset="0.7" stop-color="#677e36"/><stop offset="0.95" stop-color="#708137"/><stop offset="1" stop-color="#738237"/></linearGradient><clipPath id="clip-path-3"><path class="cls-1" d="M26.94,82.56A6.1,6.1,0,0,1,28.08,87a5.05,5.05,0,0,1-3.48,3.81c-1.39.44-2.35.32-1.48,1.77a24.36,24.36,0,0,1,1.93,3.24c1.79,4.45,0,10.43-6.45,12.18-.5.18-1,.35-1.65.52a14.56,14.56,0,0,0,14.38-14.9,16.73,16.73,0,0,0-4.39-11.09Z"/></clipPath><linearGradient id="linear-gradient-3" x1="-4372.07" y1="2390.14" x2="-4371.61" y2="2390.14" gradientTransform="matrix(31.37, 0, 0, -31.37, 137148.6, 75063.14)" xlink:href="#linear-gradient-2"/><clipPath id="clip-path-4"><path class="cls-1" d="M5.19,83.37a6.19,6.19,0,0,0-.9,3.3,8.13,8.13,0,0,0,1.13,4c3.15,5.13,6.07,4.46,7.66,8.43,1.27,3.15-1.65,5.87-6,2.15C2.21,97,.74,88,4.09,83.1A16.47,16.47,0,0,0,.42,93.62a15.52,15.52,0,0,0,2,7.54,12.75,12.75,0,0,0,4.13,4.59A14.48,14.48,0,0,0,12.88,108a10.27,10.27,0,0,0,3.36-.21A10.55,10.55,0,0,0,21,105.21c4-3.67,1.7-9.32-1.63-12.51s-5.48-5.53-4.92-8.28c.61-3,4.06-5.24,7.83-4.48a7.88,7.88,0,0,1,2.77.93,14.74,14.74,0,0,0-9.2-2.71c-4.07,0-8.48,1.54-10.65,5.21"/></clipPath><linearGradient id="linear-gradient-4" x1="-4428.23" y1="2367.59" x2="-4427.77" y2="2367.59" gradientTransform="matrix(53.7, 0, 0, -53.7, 237814.74, 127242.22)" xlink:href="#linear-gradient-2"/><clipPath id="clip-path-5"><polygon class="cls-1" points="25.04 80.86 25.04 80.86 25.04 80.86 25.04 80.86"/></clipPath><linearGradient id="linear-gradient-5" x1="-4350.41" y1="2398.15" x2="-4349.95" y2="2398.15" gradientTransform="matrix(27.04, 0, 0, -27.04, 117645.64, 64922.41)" xlink:href="#linear-gradient-2"/><linearGradient id="linear-gradient-6" x1="-3686.95" y1="2660.22" x2="-3686.5" y2="2660.22" gradientTransform="matrix(5.18, 0, 0, -5.18, 19123.55, 13860.99)" xlink:href="#linear-gradient-2"/><clipPath id="clip-path-7"><path class="cls-1" d="M25.05,80.86h0Z"/></clipPath><linearGradient id="linear-gradient-7" x1="25.04" y1="80.86" x2="25.05" y2="80.86" gradientTransform="matrix(0, 0, 0, 0, -4206.48, 1771.01)" xlink:href="#linear-gradient-2"/><linearGradient id="linear-gradient-8" x1="-3683.98" y1="2661.39" x2="-3683.52" y2="2661.39" gradientTransform="matrix(5.16, 0, 0, -5.16, 19039.32, 13817.35)" xlink:href="#linear-gradient-2"/><clipPath id="clip-path-9"><path class="cls-1" d="M17.48,84c-.34,1.7,1.1,3.43,3.22,3.85s4.11-.62,4.45-2.32-1.1-3.43-3.22-3.86a5.07,5.07,0,0,0-.94-.09A3.37,3.37,0,0,0,17.48,84"/></clipPath><linearGradient id="linear-gradient-9" x1="-4256.68" y1="2435.32" x2="-4256.22" y2="2435.32" gradientTransform="matrix(16.96, 0, 0, -16.96, 72207.73, 41386.3)" gradientUnits="userSpaceOnUse"><stop offset="0" stop-color="#02793d"/><stop offset="0.6" stop-color="#72b240"/><stop offset="0.7" stop-color="#86bc40"/><stop offset="1" stop-color="#93c13d"/></linearGradient><clipPath id="clip-path-10"><polygon class="cls-1" points="25.04 80.86 25.05 80.86 25.04 80.86 25.04 80.86"/></clipPath><linearGradient id="linear-gradient-10" x1="-4350.59" y1="2398.08" x2="-4350.13" y2="2398.08" gradientTransform="matrix(27.07, 0, 0, -27.07, 117788.33, 64996.36)" gradientUnits="userSpaceOnUse"><stop offset="0" stop-color="#187a3d"/><stop offset="0.17" stop-color="#2d873e"/><stop offset="0.51" stop-color="#63a840"/><stop offset="0.7" stop-color="#84bc41"/><stop offset="0.93" stop-color="#8ebf3e"/><stop offset="1" stop-color="#93c13d"/></linearGradient><linearGradient id="linear-gradient-11" x1="-3687.91" y1="2659.84" x2="-3687.46" y2="2659.84" gradientTransform="matrix(5.19, 0, 0, -5.19, 19150.89, 13875.16)" xlink:href="#linear-gradient-10"/><clipPath id="clip-path-12"><polyline class="cls-1" points="25.05 80.86 25.05 80.86 25.05 80.86 25.05 80.86"/></clipPath><linearGradient id="linear-gradient-12" x1="25.04" y1="80.86" x2="25.05" y2="80.86" gradientTransform="matrix(0, 0, 0, 0, -4206.48, 1771.01)" xlink:href="#linear-gradient-10"/><linearGradient id="linear-gradient-13" x1="-3683.98" y1="2661.39" x2="-3683.52" y2="2661.39" gradientTransform="matrix(5.16, 0, 0, -5.16, 19039.32, 13817.35)" xlink:href="#linear-gradient-10"/><clipPath id="clip-path-14"><path class="cls-1" d="M5.11,82.94a6.07,6.07,0,0,0-.9,3.29,8,8,0,0,0,1.29,3.9c3.15,5.11,6.07,4.6,7.67,8.56,1.26,3.14-1.82,5.77-6.15,2.06C2.12,96.55.74,87.91,4.09,83.09A15.38,15.38,0,0,0,2.3,100.67a12.43,12.43,0,0,0,4.13,4.57,14.43,14.43,0,0,0,6.37,2.28,10.27,10.27,0,0,0,3.36-.21,10.64,10.64,0,0,0,4.74-2.6c4-3.66,1.71-9.29-1.63-12.47s-5.47-5.59-4.92-8.34c.62-3,4.15-4.88,7.92-4.13A8.27,8.27,0,0,1,25,80.86a15.37,15.37,0,0,0-9.29-3.12c-4.06,0-8.48,1.54-10.64,5.2"/></clipPath><linearGradient id="linear-gradient-14" x1="-4428.51" y1="2367.47" x2="-4428.05" y2="2367.47" gradientTransform="matrix(53.89, 0, 0, -53.89, 238658.7, 127678.65)" gradientUnits="userSpaceOnUse"><stop offset="0" stop-color="#02793d"/><stop offset="0.6" stop-color="#72b240"/><stop offset="0.7" stop-color="#86bc40"/><stop offset="1" stop-color="#93c13d"/></linearGradient><clipPath id="clip-path-15"><path class="cls-1" d="M26.94,82.56a4.91,4.91,0,0,1-2.43,7.86c-1.39.45-2.35.24-1.48,1.69A21.32,21.32,0,0,1,25,95.19a9.75,9.75,0,0,1-1.31,9.44l-.08.1h0l-.06.07a8.44,8.44,0,0,1-1.71,1.61l-.15.11-.17.12a10.34,10.34,0,0,1-1.65.88,19.44,19.44,0,0,1-2.7,1,15.42,15.42,0,0,0,9.81-25.95Z"/></clipPath><linearGradient id="linear-gradient-15" x1="-4368.8" y1="2391.44" x2="-4368.34" y2="2391.44" gradientTransform="matrix(30.63, 0, 0, -30.63, 133816.2, 73336.03)" xlink:href="#linear-gradient-9"/></defs><text class="cls-2" transform="translate(0.93 132.68)"><tspan class="cls-3">A v</tspan><tspan class="cls-4" x="26.26" y="0">i</tspan><tspan class="cls-3" x="33.88" y="0">ew </tspan><tspan class="cls-5" x="61.7" y="0">o</tspan><tspan class="cls-3" x="72.48" y="0">f the </tspan><tspan class="cls-6" x="124.74" y="0">b</tspan><tspan class="cls-7" x="133.92" y="0">lu</tspan><tspan class="cls-8" x="152.88" y="0">e </tspan><tspan class="cls-9" x="168.65" y="0">s</tspan><tspan class="cls-3" x="177.19" y="0">k</tspan><tspan class="cls-4" x="187.07" y="0">y</tspan><tspan x="196.17" y="0">!</tspan></text><path class="cls-10" d="M117,103.45h-2.14v5.08h-3.5V94.28H117a4.59,4.59,0,1,1,0,9.17m-.16-6h-2v2.88h2a1.44,1.44,0,1,0,0-2.88"/><path class="cls-10" d="M130.88,108.53l-.66-2.12h-4.38l-.7,2.12h-3.66l5.18-14.25h2.7l5.19,14.25Zm-2.78-8.85-1.28,3.81h2.48Z"/><path class="cls-10" d="M143.19,108.53l-2.52-5.3h-1.18v5.3H136V94.28h5.64a4.55,4.55,0,0,1,4.87,4.58,4.11,4.11,0,0,1-2.32,3.73l3.08,5.94Zm-1.72-11.11h-2v2.88h2a1.44,1.44,0,1,0,0-2.88"/><polygon class="cls-10" points="156.99 108.53 153.7 102.69 152.5 104.07 152.5 108.53 149.04 108.53 149.04 94.28 152.5 94.28 152.5 99.32 156.63 94.28 160.91 94.28 156.05 100.04 161.07 108.53 156.99 108.53"/><g class="cls-11"><rect class="cls-12" x="138.38" y="62.37" width="40.16" height="38.19" transform="translate(-11.18 27) rotate(-9.41)"/></g><path class="cls-13" d="M45.93,89.57A3.91,3.91,0,0,1,44.75,91a5.57,5.57,0,0,1-1.76.87,7.43,7.43,0,0,1-2.14.3,10.05,10.05,0,0,1-3.07-.41,5.46,5.46,0,0,1-2.34-1.47L37.69,88a3,3,0,0,0,1.37.76,6.6,6.6,0,0,0,1.81.24c1.36,0,2-.43,2-1.28a1.17,1.17,0,0,0-.28-.84,1.54,1.54,0,0,0-.94-.38l-.84-.12L40,86.29A4.91,4.91,0,0,1,37.11,85a4,4,0,0,1-1-2.87,4.15,4.15,0,0,1,1.41-3.24,5.47,5.47,0,0,1,3.79-1.26,8.35,8.35,0,0,1,2.73.4,5.38,5.38,0,0,1,2.07,1.3l-2.2,2.2a2.44,2.44,0,0,0-1.18-.69,6.73,6.73,0,0,0-1.52-.15,1.87,1.87,0,0,0-1.28.4,1.21,1.21,0,0,0-.44.92.87.87,0,0,0,.28.66,1.56,1.56,0,0,0,1,.42l.78.11.94.13a4.78,4.78,0,0,1,2.8,1.19,4.88,4.88,0,0,1,.64,5"/><rect class="cls-13" x="47.78" y="77.78" width="3.5" height="14.25"/><path class="cls-13" d="M63.67,88.64a4.54,4.54,0,0,1-1.13,1.91,4.64,4.64,0,0,1-1.87,1.25,6.72,6.72,0,0,1-2.27.35,5.66,5.66,0,0,1-2.19-.4,5.45,5.45,0,0,1-1.77-1.2,4.14,4.14,0,0,1-1.19-2.18A18.23,18.23,0,0,1,53,84.91a18.27,18.27,0,0,1,.25-3.47,4.18,4.18,0,0,1,1.19-2.18,5.21,5.21,0,0,1,4-1.6,6.33,6.33,0,0,1,2.32.39,4.65,4.65,0,0,1,1.67,1.06,5.23,5.23,0,0,1,1.06,1.51A6.71,6.71,0,0,1,64,82.38H60.44a2.3,2.3,0,0,0-.69-1.21,2.05,2.05,0,0,0-1.35-.39,1.86,1.86,0,0,0-.81.17,1.84,1.84,0,0,0-.57.45,2.14,2.14,0,0,0-.23.38,2.45,2.45,0,0,0-.15.56c0,.24-.07.57-.1,1s0,1,0,1.59,0,1.16,0,1.57.06.73.1,1a2.52,2.52,0,0,0,.15.58,1.9,1.9,0,0,0,.23.39,1.64,1.64,0,0,0,1.38.6A2.05,2.05,0,0,0,60,88.47a1.58,1.58,0,0,0,.41-.68A2.63,2.63,0,0,0,60.5,87v-.2H58.4V83.83H64v2a10.45,10.45,0,0,1-.32,2.83"/><polygon class="cls-13" points="73.69 92.03 69.13 84.87 69.13 92.03 65.62 92.03 65.62 77.78 68.69 77.78 73.25 84.95 73.25 77.78 76.75 77.78 76.75 92.03 73.69 92.03"/><path class="cls-13" d="M87.18,92l-.66-2.12H82.13L81.43,92H77.77L83,77.78h2.71L90.84,92ZM84.4,83.18,83.11,87H85.6Z"/><polygon class="cls-13" points="96.64 80.9 96.64 92.03 93.14 92.03 93.14 80.9 89.64 80.9 89.64 77.78 100.14 77.78 100.14 80.9 96.64 80.9"/><path class="cls-13" d="M111.72,89.12a4.78,4.78,0,0,1-1.17,1.63,5.27,5.27,0,0,1-1.74,1,6.08,6.08,0,0,1-2.09.36,5.94,5.94,0,0,1-2.08-.36,5.27,5.27,0,0,1-1.74-1,4.76,4.76,0,0,1-1.16-1.63,5.27,5.27,0,0,1-.41-2.09V77.78h3.51V87a2.17,2.17,0,0,0,.5,1.53,1.75,1.75,0,0,0,1.38.55,1.84,1.84,0,0,0,1.4-.55,2.18,2.18,0,0,0,.52-1.53V77.78h3.5V87a5.1,5.1,0,0,1-.42,2.09"/><path class="cls-13" d="M121.28,92l-2.53-5.3h-1.18V92h-3.5V77.78h5.64a5.45,5.45,0,0,1,2.07.37,4.32,4.32,0,0,1,2.48,2.5,4.84,4.84,0,0,1,.32,1.71,3.88,3.88,0,0,1-.67,2.3,4.42,4.42,0,0,1-1.65,1.43L125.34,92Zm-.61-10.68a1.51,1.51,0,0,0-1.11-.43h-2v2.89h2a1.51,1.51,0,0,0,1.11-.43,1.46,1.46,0,0,0,0-2"/><polygon class="cls-13" points="126.53 92.03 126.53 77.78 136.22 77.78 136.22 80.9 130.03 80.9 130.03 83.28 135.32 83.28 135.32 86.41 130.03 86.41 130.03 88.91 136.22 88.91 136.22 92.03 126.53 92.03"/><path class="cls-13" d="M47,105a4.48,4.48,0,0,1-1.12,1.91A4.64,4.64,0,0,1,44,108.12a7,7,0,0,1-2.27.35,5.63,5.63,0,0,1-2.19-.4,5.45,5.45,0,0,1-1.77-1.2,4.14,4.14,0,0,1-1.19-2.18,24.14,24.14,0,0,1,0-6.93,4.14,4.14,0,0,1,1.19-2.18,5.48,5.48,0,0,1,1.75-1.2,5.59,5.59,0,0,1,2.21-.4,6.37,6.37,0,0,1,2.32.39,4.65,4.65,0,0,1,1.67,1.06,5,5,0,0,1,1.05,1.51,6.37,6.37,0,0,1,.52,1.76H43.77a2.36,2.36,0,0,0-.69-1.21,2.05,2.05,0,0,0-1.35-.39,1.86,1.86,0,0,0-.81.17,1.84,1.84,0,0,0-.57.45,2.14,2.14,0,0,0-.23.38,2.45,2.45,0,0,0-.15.56,8.57,8.57,0,0,0-.1,1c0,.42,0,.94,0,1.58s0,1.17,0,1.58a9.1,9.1,0,0,0,.1,1,2.67,2.67,0,0,0,.15.58,1.9,1.9,0,0,0,.23.39,1.64,1.64,0,0,0,1.38.6,2.05,2.05,0,0,0,1.56-.56,1.75,1.75,0,0,0,.41-.68,2.63,2.63,0,0,0,.13-.84v-.2h-2.1v-2.93h5.58v2A10.07,10.07,0,0,1,47,105"/><polygon class="cls-13" points="49.01 108.35 49.01 94.1 52.51 94.1 52.51 105.23 58.5 105.23 58.5 108.35 49.01 108.35"/><path class="cls-13" d="M70.08,104.69a4.14,4.14,0,0,1-1.19,2.18,5.51,5.51,0,0,1-1.76,1.2,6.36,6.36,0,0,1-4.44,0,5.51,5.51,0,0,1-1.76-1.2,4.14,4.14,0,0,1-1.19-2.18,24.14,24.14,0,0,1,0-6.93,4.14,4.14,0,0,1,1.19-2.18,5.51,5.51,0,0,1,1.76-1.2,6.36,6.36,0,0,1,4.44,0,5.51,5.51,0,0,1,1.76,1.2,4.14,4.14,0,0,1,1.19,2.18,24.14,24.14,0,0,1,0,6.93m-3.28-5a7.1,7.1,0,0,0-.1-1,3.15,3.15,0,0,0-.16-.57,2.14,2.14,0,0,0-.23-.38,1.38,1.38,0,0,0-.57-.45,2,2,0,0,0-.83-.17,1.94,1.94,0,0,0-.82.17,1.65,1.65,0,0,0-.58.45,2.14,2.14,0,0,0-.23.38,2.45,2.45,0,0,0-.15.56,8.57,8.57,0,0,0-.1,1c0,.42,0,.94,0,1.58s0,1.17,0,1.57a8.88,8.88,0,0,0,.1,1,2.56,2.56,0,0,0,.15.57,2.14,2.14,0,0,0,.23.38,1.82,1.82,0,0,0,2.8,0,2.14,2.14,0,0,0,.23-.38,2.45,2.45,0,0,0,.15-.56c0-.24.07-.57.1-1s0-.94,0-1.58,0-1.16,0-1.57"/><path class="cls-13" d="M81.46,107.24a4.62,4.62,0,0,1-3.2,1.11H72.05V94.1H78a4.69,4.69,0,0,1,3.36,1.12,3.94,3.94,0,0,1,1.18,3A2.92,2.92,0,0,1,82,100,4.31,4.31,0,0,1,80.94,101c.21.14.41.27.59.41a3.05,3.05,0,0,1,1,1.47,3.8,3.8,0,0,1,.18,1.23,3.92,3.92,0,0,1-1.24,3.09M78.7,97.58a1.24,1.24,0,0,0-1-.34H75.55v2.32h2.19a1.21,1.21,0,0,0,1-.34,1.18,1.18,0,0,0,.3-.82,1.2,1.2,0,0,0-.3-.82m.19,5.49a1.22,1.22,0,0,0-1-.36H75.55v2.5h2.37a1.22,1.22,0,0,0,1-.37,1.4,1.4,0,0,0,.31-.89,1.33,1.33,0,0,0-.31-.88"/><path class="cls-13" d="M92.42,108.35l-.66-2.12H87.38l-.7,2.12H83L88.2,94.1h2.7l5.18,14.25ZM89.64,99.5l-1.28,3.81h2.48Z"/><polygon class="cls-13" points="97.17 108.35 97.17 94.1 100.68 94.1 100.68 105.23 106.66 105.23 106.66 108.35 97.17 108.35"/><path class="cls-13" d="M172,94.27v9.2h1.24v2.13H172v2.93h-2.7V105.6h-4.7v-2.13l4.3-9.2Zm-2.7,9.2V97.6l-2.71,5.87Z"/><path class="cls-13" d="M190.72,101.9l.37-7.63h7v2.14h-4.91l-.17,3.1a2.89,2.89,0,0,1,1-.64,3.51,3.51,0,0,1,1.16-.17,3.57,3.57,0,0,1,1.87.43,2.88,2.88,0,0,1,1.11,1.16,5.05,5.05,0,0,1,.51,1.58,11.89,11.89,0,0,1,.14,1.85,6.78,6.78,0,0,1-.9,3.88,3.56,3.56,0,0,1-3.12,1.28,4,4,0,0,1-3.25-1.11,6.09,6.09,0,0,1-.9-3.76h2.55v.37c0,.35,0,.64,0,.88a2.31,2.31,0,0,0,.16.69,1.18,1.18,0,0,0,.41.55,1.26,1.26,0,0,0,.74.25,1.47,1.47,0,0,0,.85-.23,1.17,1.17,0,0,0,.46-.62,3.19,3.19,0,0,0,.19-.81c0-.28,0-.64.05-1.1v-.52a.87.87,0,0,0,0-.2,3.3,3.3,0,0,0-.4-1.92,1.43,1.43,0,0,0-1.17-.52,1.48,1.48,0,0,0-.9.3,1.09,1.09,0,0,0-.45.77Z"/><path class="cls-13" d="M185.9,105.72l3,2.79-.25,0h-2.56a.75.75,0,0,1-.4-.17c-.39-.34-.77-.7-1.11-1a13.83,13.83,0,0,1-1.92,1,6.05,6.05,0,0,1-6-.76,4,4,0,0,1-.28-5.87,14.09,14.09,0,0,1,1.3-1l-.25-.36a3.77,3.77,0,0,1,2.48-6,4.24,4.24,0,0,1,5.39,3.83H183a6.15,6.15,0,0,0-.25-.76,1.9,1.9,0,0,0-2.51-1,1.87,1.87,0,0,0-1,2.35,3.93,3.93,0,0,0,1.07,1.56c1.33,1.28,2.68,2.53,4,3.8l.1,0,.26-.39,1.42-2.21a.43.43,0,0,1,.41-.23c.7,0,1.4,0,2.18,0l-2.78,4.31m-2.93.15-.36-.35-3-2.82c-.51-.47-.51-.48-1.07-.06a2.22,2.22,0,0,0-1,2,2.12,2.12,0,0,0,1.42,1.81,4.05,4.05,0,0,0,4.06-.58"/><text class="cls-14" transform="translate(0.33 119)"><tspan class="cls-15">SE</tspan><tspan class="cls-16" x="11.98" y="0">C</tspan><tspan class="cls-17" x="18.04" y="0">T</tspan><tspan class="cls-15" x="23.63" y="0">OR</tspan><tspan class="cls-18" x="36.38" y="0"> </tspan><tspan class="cls-19" x="39.81" y="0">36, </tspan><tspan class="cls-18" x="57.98" y="0">SO</tspan><tspan class="cls-15" x="70.26" y="0">H</tspan><tspan class="cls-18" x="76.92" y="0">NA</tspan><tspan class="cls-19" x="89.99" y="0">,</tspan><tspan class="cls-18" x="93.66" y="0"> </tspan><tspan class="cls-20" x="97.08" y="0">S</tspan><tspan class="cls-18" x="103.03" y="0">OU</tspan><tspan class="cls-20" x="115.91" y="0">T</tspan><tspan class="cls-18" x="121.64" y="0">H</tspan><tspan class="cls-21" x="128.3" y="0"> </tspan><tspan class="cls-22" x="131.73" y="0">O</tspan><tspan class="cls-19" x="138.07" y="0">F </tspan><tspan class="cls-23" x="147.41" y="0">GU</tspan><tspan class="cls-20" x="160.32" y="0">R</tspan><tspan class="cls-23" x="166.72" y="0">U</tspan><tspan class="cls-24" x="173.27" y="0">GR</tspan><tspan class="cls-23" x="186.04" y="0">A</tspan><tspan x="192.23" y="0">M</tspan></text><g class="cls-25"><polygon class="cls-26" points="17.21 81.97 25.59 81.94 25.57 88.76 17.18 88.79 17.21 81.97"/></g><g class="cls-27"><rect class="cls-28" x="16.95" y="82.56" width="14.38" height="26"/></g><g class="cls-29"><rect class="cls-30" x="0.42" y="78.16" width="24.62" height="29.98"/></g><g class="cls-31"><rect class="cls-32" x="25.04" y="80.86"/></g><g class="cls-31"><rect class="cls-33" x="25.04" y="80.86"/></g><g class="cls-34"><rect class="cls-35" x="25.04" y="80.86"/></g><g class="cls-34"><rect class="cls-36" x="25.04" y="80.86"/></g><g class="cls-37"><rect class="cls-38" x="17.14" y="81.55" width="8.36" height="6.7"/></g><g class="cls-39"><rect class="cls-40" x="25.04" y="80.86"/></g><g class="cls-39"><rect class="cls-41" x="25.04" y="80.86"/></g><g class="cls-42"><rect class="cls-43" x="25.04" y="80.86"/></g><g class="cls-42"><rect class="cls-44" x="25.04" y="80.86"/></g><g class="cls-45"><rect class="cls-46" x="0.34" y="77.74" width="24.7" height="29.88"/></g><g class="cls-47"><rect class="cls-48" x="17.13" y="82.56" width="14.04" height="25.95"/></g><line class="cls-49" x1="0.88" y1="123.6" x2="199.31" y2="123.6"/></svg>